<svg viewBox="0 0 1080 1080" fill="none" xmlns="http://www.w3.org/2000/svg">      <defs>  <filter id="filter" x="-20%" y="-20%" width="140%" height="140%" filterUnits="objectBoundingBox" primitiveUnits="userSpaceOnUse" color-interpolation-filters="linearRGB">    <feMorphology operator="dilate" radius="20 20" in="SourceAlpha" result="morphology"/>    <feFlood flood-color="#ffffff" flood-opacity="1" result="flood"/>    <feComposite in="flood" in2="morphology" operator="in" result="composite"/>    <feMerge result="merge">          <feMergeNode in="composite" result="mergeNode"/>      <feMergeNode in="SourceGraphic" result="mergeNode1"/>      </feMerge>  </filter></defs>      <g id="notion-avatar" filter="url(#filter)">        <g id="notion-avatar-face" fill="#ffffff">      <!--?xml version="1.0" encoding="UTF-8"?-->    <!-- Generator: Sketch 63.1 (92452) - https://sketch.com -->    <title>Face/ 15</title>    <desc>Created with Sketch.</desc>    <g id="Face/-15" stroke="none" stroke-width="1" fill-rule="evenodd" stroke-linecap="round" stroke-linejoin="round">        <path d="M532,379 C664.54834,379 772,486.45166 772,619 C772,642.160109 793.234546,666.244677 787.453024,688.979248 C773.583554,743.517917 768.701879,951.343666 608,919 C549.618945,907.249936 481,900 453,878 C425,856 342.170039,758.772836 320.189513,718.584987 C317.498129,718.859681 314.765451,719 312,719 C267.81722,719 232,683.18278 232,639 C232,599.134956 261.158843,566.080325 299.312086,560.00055 C325.599297,455.979213 419.809919,379 532,379 Z M295.858895,624.545187 L304.141105,655.454813" id="Path" stroke="#000000" stroke-width="24"/>    </g>    </g><g id="notion-avatar-nose">      <!--?xml version="1.0" encoding="UTF-8"?-->    <title>Nose/ 0</title>    <g id="Nose/-0" stroke="none" stroke-width="1" fill="none" fill-rule="evenodd" stroke-linecap="round" stroke-linejoin="round">        <line x1="637" y1="596" x2="661.856189" y2="682.499537" id="Line" stroke="#000000" stroke-width="16" transform="translate(649.428094, 639.249768) rotate(1.032339) translate(-649.428094, -639.249768) "/>    </g>    </g><g id="notion-avatar-mouth">      <!--?xml version="1.0" encoding="UTF-8"?-->    <title>Mouth/ 2</title>    <g id="Mouth/-2" stroke="none" stroke-width="1" fill="none" fill-rule="evenodd" stroke-linecap="round" stroke-linejoin="round">        <path d="M572,769 C585.775809,774.333333 599.109142,777 612,777 C624.890858,777 638.224191,774.333333 652,769" id="Path" stroke="#000000" stroke-width="16"/>    </g>    </g><g id="notion-avatar-eyes">      <!--?xml version="1.0" encoding="UTF-8"?-->    <title>Eyes/ 2</title>    <g id="Eyes/-2" stroke="none" stroke-width="1" fill="none" fill-rule="evenodd">        <path d="M570,516 C587.673112,516 602,530.326888 602,548 C602,565.673112 587.673112,580 570,580 C552.326888,580 538,565.673112 538,548 C538,530.326888 552.326888,516 570,516 Z M708,516 C725.673112,516 740,530.326888 740,548 C740,565.673112 725.673112,580 708,580 C690.326888,580 676,565.673112 676,548 C676,530.326888 690.326888,516 708,516 Z" id="Combined-Shape" fill="#000000"/>    </g>    </g><g id="notion-avatar-eyebrows">      <!--?xml version="1.0" encoding="UTF-8"?-->    <title>Eyebrows/ 0</title>    <g id="Eyebrows/-0" stroke="none" stroke-width="1" fill="none" fill-rule="evenodd" stroke-linecap="round" stroke-linejoin="round">        <g id="Group" transform="translate(525.000000, 492.000000)" stroke="#000000" stroke-width="16">            <path d="M0,16 C12.8888889,5.33333333 27.8888889,0 45,0 C62.1111111,0 77.1111111,5.33333333 90,16" id="Path"/>            <path d="M138,16 C150.888889,5.33333333 165.888889,0 183,0 C200.111111,0 215.111111,5.33333333 228,16" id="Path"/>        </g>    </g>    </g><g id="notion-avatar-glasses">      <g id="Glasses/ 11"><g id="Group"><path id="Path" fill-rule="evenodd" clip-rule="evenodd" d="M481 508L293 541L289 550L481 521V508Z" fill="black" stroke="black" stroke-width="4" stroke-linecap="round" stroke-linejoin="round"/><g id="Combined Shape"><path fill-rule="evenodd" clip-rule="evenodd" d="M474 506.65L507.276 500.835C507.276 500.835 526.938 483 559.08 483C591.221 483 624.497 512.466 624.497 512.466H640H655.503C655.503 512.466 688.779 483 720.92 483C753.061 483 772.724 500.835 772.724 500.835L806 506.65V525.26L794.656 531.076C794.656 531.076 790.875 593.497 768.187 612.107C745.499 630.717 709.88 630.544 684.241 612.107C658.603 593.671 650.588 531.076 650.588 531.076H640H629.412C629.412 531.076 621.397 593.671 595.759 612.107C570.12 630.544 534.501 630.717 511.813 612.107C489.125 593.497 485.344 531.076 485.344 531.076L474 525.26V506.65ZM507.685 512.117C504.389 514.911 502.191 517.487 501.219 519.374C500.749 520.285 500.131 522.488 499.556 525.707C498.986 528.903 498.468 533.045 498.178 537.791C497.598 547.287 497.931 559.179 500.56 570.745C503.189 582.313 508.107 593.517 516.669 601.686C525.217 609.843 537.443 615.018 554.787 614.459L554.791 614.459C571.028 614.086 583.045 608.636 591.886 600.564C600.736 592.483 606.431 581.748 609.964 570.769C613.497 559.792 614.859 548.598 615.061 539.633C615.162 535.151 614.973 531.233 614.622 528.186C614.447 526.661 614.232 525.36 613.994 524.318C613.754 523.266 613.498 522.508 613.253 522.051C608.888 513.917 593.331 495.684 561.12 494.551C545.01 493.984 531.02 498.259 520.553 503.656C515.319 506.355 510.972 509.331 507.685 512.117ZM520.095 502.767C530.688 497.305 544.847 492.977 561.155 493.551C593.778 494.699 609.629 513.183 614.134 521.578C614.443 522.155 614.723 523.016 614.969 524.095C615.217 525.183 615.438 526.522 615.616 528.071C615.972 531.171 616.163 535.135 616.061 539.655C615.857 548.695 614.484 559.988 610.916 571.076C607.348 582.162 601.577 593.069 592.56 601.302C583.535 609.543 571.284 615.079 554.817 615.458C537.239 616.025 524.743 610.773 515.978 602.41C507.226 594.058 502.24 582.647 499.585 570.966C496.929 559.283 496.596 547.291 497.18 537.73C497.472 532.949 497.994 528.769 498.572 525.532C499.145 522.318 499.783 519.977 500.33 518.916C501.39 516.859 503.701 514.183 507.039 511.354C510.386 508.517 514.798 505.499 520.095 502.767ZM772.315 512.117C775.611 514.911 777.809 517.487 778.781 519.374C779.251 520.285 779.869 522.488 780.444 525.707C781.014 528.903 781.532 533.045 781.822 537.791C782.402 547.287 782.069 559.179 779.44 570.745C776.811 582.313 771.893 593.517 763.331 601.686C754.783 609.843 742.557 615.018 725.213 614.459L725.209 614.459C708.972 614.086 696.955 608.636 688.114 600.564C679.264 592.483 673.569 581.748 670.036 570.769C666.503 559.792 665.141 548.598 664.939 539.633C664.838 535.151 665.027 531.233 665.378 528.186C665.553 526.661 665.768 525.36 666.006 524.318C666.246 523.266 666.502 522.508 666.747 522.051C671.112 513.917 686.669 495.684 718.88 494.551C734.99 493.984 748.98 498.259 759.447 503.656C764.681 506.355 769.028 509.331 772.315 512.117ZM759.905 502.767C749.312 497.305 735.153 492.977 718.845 493.551C686.222 494.699 670.371 513.183 665.866 521.578C665.557 522.155 665.277 523.016 665.031 524.095C664.783 525.183 664.562 526.522 664.384 528.071C664.028 531.171 663.837 535.135 663.939 539.655C664.143 548.695 665.516 559.988 669.084 571.076C672.652 582.162 678.423 593.069 687.44 601.302C696.465 609.543 708.716 615.079 725.183 615.458C742.761 616.025 755.257 610.773 764.022 602.41C772.774 594.058 777.76 582.647 780.415 570.966C783.071 559.283 783.404 547.291 782.82 537.73C782.528 532.949 782.006 528.769 781.428 525.532C780.855 522.318 780.217 519.977 779.67 518.916C778.61 516.859 776.299 514.183 772.961 511.354C769.614 508.517 765.202 505.499 759.905 502.767Z" fill="black"/><path d="M507.276 500.835L507.62 502.805C507.993 502.74 508.339 502.57 508.619 502.316L507.276 500.835ZM474 506.65L473.656 504.68C472.698 504.847 472 505.679 472 506.65H474ZM624.497 512.466L623.171 513.963C623.536 514.287 624.008 514.466 624.497 514.466V512.466ZM655.503 512.466V514.466C655.992 514.466 656.464 514.287 656.829 513.963L655.503 512.466ZM772.724 500.835L771.381 502.316C771.661 502.57 772.007 502.74 772.38 502.805L772.724 500.835ZM806 506.65H808C808 505.679 807.302 504.847 806.344 504.68L806 506.65ZM806 525.26L806.912 527.04C807.58 526.698 808 526.011 808 525.26H806ZM794.656 531.076L793.744 529.296C793.115 529.619 792.702 530.249 792.66 530.955L794.656 531.076ZM684.241 612.107L685.409 610.484L684.241 612.107ZM650.588 531.076L652.571 530.822C652.444 529.824 651.594 529.076 650.588 529.076V531.076ZM629.412 531.076V529.076C628.406 529.076 627.556 529.824 627.429 530.822L629.412 531.076ZM595.759 612.107L594.591 610.484L595.759 612.107ZM485.344 531.076L487.34 530.955C487.298 530.249 486.885 529.619 486.256 529.296L485.344 531.076ZM474 525.26H472C472 526.011 472.42 526.698 473.088 527.04L474 525.26ZM501.219 519.374L502.997 520.29L501.219 519.374ZM507.685 512.117L506.392 510.591L507.685 512.117ZM499.556 525.707L501.525 526.059L501.525 526.059L499.556 525.707ZM498.178 537.791L500.175 537.913L498.178 537.791ZM500.56 570.745L502.51 570.301L500.56 570.745ZM516.669 601.686L518.049 600.239H518.049L516.669 601.686ZM554.787 614.459L554.734 612.459L554.722 612.46L554.787 614.459ZM554.791 614.459L554.745 612.459L554.739 612.459L554.791 614.459ZM591.886 600.564L590.537 599.087L591.886 600.564ZM609.964 570.769L611.868 571.382L609.964 570.769ZM615.061 539.633L613.062 539.588V539.588L615.061 539.633ZM614.622 528.186L616.609 527.957V527.957L614.622 528.186ZM613.994 524.318L615.944 523.873L613.994 524.318ZM613.253 522.051L611.491 522.997V522.997L613.253 522.051ZM561.12 494.551L561.19 492.552L561.12 494.551ZM520.553 503.656L521.469 505.434L520.553 503.656ZM561.155 493.551L561.085 495.55L561.155 493.551ZM520.095 502.767L519.178 500.99L520.095 502.767ZM614.134 521.578L612.372 522.524L612.372 522.524L614.134 521.578ZM614.969 524.095L613.019 524.54L613.019 524.54L614.969 524.095ZM615.616 528.071L613.629 528.3V528.3L615.616 528.071ZM616.061 539.655L614.061 539.61L616.061 539.655ZM610.916 571.076L609.012 570.463L610.916 571.076ZM592.56 601.302L591.212 599.825H591.212L592.56 601.302ZM554.817 615.458L554.771 613.459C554.764 613.459 554.758 613.459 554.752 613.459L554.817 615.458ZM515.978 602.41L517.359 600.963L515.978 602.41ZM499.585 570.966L501.535 570.523L499.585 570.966ZM497.18 537.73L495.184 537.609V537.609L497.18 537.73ZM498.572 525.532L496.603 525.18L498.572 525.532ZM500.33 518.916L502.108 519.832L500.33 518.916ZM507.039 511.354L505.746 509.828L507.039 511.354ZM778.781 519.374L780.559 518.458V518.458L778.781 519.374ZM772.315 512.117L773.608 510.591V510.591L772.315 512.117ZM780.444 525.707L782.413 525.356V525.356L780.444 525.707ZM781.822 537.791L783.818 537.67V537.669L781.822 537.791ZM779.44 570.745L781.39 571.188V571.188L779.44 570.745ZM763.331 601.686L761.951 600.239L763.331 601.686ZM725.213 614.459L725.278 612.46L725.266 612.459L725.213 614.459ZM725.209 614.459L725.261 612.459L725.255 612.459L725.209 614.459ZM688.114 600.564L689.463 599.087L688.114 600.564ZM670.036 570.769L668.132 571.382L670.036 570.769ZM664.939 539.633L666.938 539.588V539.588L664.939 539.633ZM665.378 528.186L663.391 527.957V527.957L665.378 528.186ZM666.006 524.318L664.056 523.873L666.006 524.318ZM666.747 522.051L668.509 522.997V522.997L666.747 522.051ZM718.88 494.551L718.81 492.552L718.88 494.551ZM759.447 503.656L758.531 505.434V505.434L759.447 503.656ZM718.845 493.551L718.915 495.55L718.845 493.551ZM759.905 502.767L760.822 500.99V500.99L759.905 502.767ZM665.866 521.578L667.628 522.524L667.628 522.524L665.866 521.578ZM665.031 524.095L666.981 524.54L666.981 524.54L665.031 524.095ZM664.384 528.071L666.371 528.3V528.3L664.384 528.071ZM663.939 539.655L665.939 539.61L663.939 539.655ZM669.084 571.076L670.988 570.463L669.084 571.076ZM687.44 601.302L686.091 602.779L687.44 601.302ZM725.183 615.458L725.248 613.459C725.242 613.459 725.236 613.459 725.229 613.459L725.183 615.458ZM764.022 602.41L765.402 603.857L764.022 602.41ZM780.415 570.966L778.465 570.523L780.415 570.966ZM782.82 537.73L784.816 537.609V537.609L782.82 537.73ZM781.428 525.532L779.459 525.883V525.883L781.428 525.532ZM779.67 518.916L781.448 518V518L779.67 518.916ZM772.961 511.354L774.254 509.828L774.254 509.828L772.961 511.354ZM506.931 498.865L473.656 504.68L474.344 508.62L507.62 502.805L506.931 498.865ZM559.08 481C542.633 481 529.376 485.564 520.232 490.128C515.659 492.41 512.107 494.696 509.689 496.419C508.48 497.281 507.553 498.004 506.922 498.516C506.607 498.772 506.366 498.976 506.2 499.118C506.117 499.189 506.053 499.245 506.009 499.285C505.986 499.305 505.969 499.32 505.956 499.332C505.949 499.337 505.944 499.342 505.94 499.346C505.938 499.348 505.937 499.349 505.935 499.35C505.935 499.351 505.934 499.352 505.933 499.352C505.933 499.353 505.932 499.353 507.276 500.835C508.619 502.316 508.619 502.317 508.618 502.317C508.618 502.317 508.618 502.317 508.618 502.317C508.618 502.318 508.618 502.317 508.618 502.317C508.619 502.316 508.621 502.315 508.624 502.312C508.631 502.306 508.642 502.296 508.657 502.282C508.689 502.254 508.739 502.21 508.809 502.151C508.947 502.032 509.159 501.852 509.444 501.621C510.014 501.158 510.875 500.487 512.011 499.677C514.284 498.056 517.657 495.883 522.018 493.707C530.74 489.354 543.385 485 559.08 485V481ZM624.497 512.466C625.822 510.969 625.822 510.968 625.821 510.968C625.821 510.967 625.82 510.967 625.82 510.966C625.818 510.965 625.816 510.963 625.814 510.961C625.809 510.956 625.802 510.95 625.793 510.942C625.775 510.926 625.748 510.904 625.715 510.874C625.647 510.815 625.547 510.729 625.417 510.617C625.157 510.394 624.775 510.07 624.28 509.66C623.289 508.839 621.842 507.671 620.008 506.272C616.341 503.475 611.114 499.746 604.866 496.016C592.431 488.59 575.696 481 559.08 481V485C574.605 485 590.578 492.143 602.816 499.45C608.905 503.086 614.005 506.724 617.582 509.452C619.37 510.815 620.774 511.95 621.728 512.74C622.205 513.135 622.57 513.444 622.813 513.653C622.934 513.757 623.026 513.837 623.086 513.889C623.116 513.915 623.138 513.934 623.152 513.947C623.159 513.953 623.164 513.958 623.167 513.96C623.169 513.962 623.17 513.963 623.171 513.963C623.171 513.963 623.171 513.963 623.171 513.964C623.171 513.963 623.171 513.963 624.497 512.466ZM640 510.466H624.497V514.466H640V510.466ZM640 514.466H655.503V510.466H640V514.466ZM655.503 512.466C656.829 513.963 656.829 513.963 656.829 513.964C656.829 513.963 656.829 513.963 656.829 513.963C656.83 513.963 656.831 513.962 656.833 513.96C656.836 513.958 656.841 513.953 656.848 513.947C656.862 513.934 656.884 513.915 656.914 513.889C656.974 513.837 657.066 513.757 657.187 513.653C657.43 513.444 657.795 513.135 658.272 512.74C659.226 511.95 660.63 510.815 662.418 509.452C665.995 506.724 671.095 503.086 677.184 499.45C689.422 492.143 705.395 485 720.92 485V481C704.304 481 687.569 488.59 675.134 496.016C668.886 499.746 663.659 503.475 659.992 506.272C658.158 507.671 656.711 508.839 655.72 509.66C655.225 510.07 654.843 510.394 654.583 510.617C654.453 510.729 654.353 510.815 654.285 510.874C654.252 510.904 654.225 510.926 654.207 510.942C654.198 510.95 654.191 510.956 654.186 510.961C654.184 510.963 654.182 510.965 654.18 510.966C654.18 510.967 654.179 510.967 654.179 510.968C654.178 510.968 654.178 510.969 655.503 512.466ZM720.92 485C736.615 485 749.26 489.354 757.982 493.707C762.343 495.883 765.716 498.056 767.989 499.677C769.125 500.487 769.986 501.158 770.556 501.621C770.841 501.852 771.053 502.032 771.191 502.151C771.261 502.21 771.311 502.254 771.343 502.282C771.358 502.296 771.369 502.306 771.376 502.312C771.379 502.315 771.381 502.316 771.382 502.317C771.382 502.317 771.382 502.318 771.382 502.317C771.382 502.317 771.382 502.317 771.382 502.317C771.381 502.317 771.381 502.316 772.724 500.835C774.068 499.353 774.067 499.353 774.067 499.352C774.066 499.352 774.065 499.351 774.065 499.35C774.063 499.349 774.062 499.348 774.06 499.346C774.056 499.342 774.051 499.337 774.044 499.332C774.031 499.32 774.014 499.305 773.991 499.285C773.947 499.245 773.883 499.189 773.8 499.118C773.634 498.976 773.393 498.772 773.078 498.516C772.447 498.004 771.52 497.281 770.311 496.419C767.893 494.696 764.341 492.41 759.768 490.128C750.624 485.564 737.367 481 720.92 481V485ZM772.38 502.805L805.656 508.62L806.344 504.68L773.069 498.865L772.38 502.805ZM804 506.65V525.26H808V506.65H804ZM805.088 523.481L793.744 529.296L795.568 532.856L806.912 527.04L805.088 523.481ZM794.656 531.076C792.66 530.955 792.66 530.955 792.66 530.955C792.66 530.955 792.66 530.956 792.66 530.957C792.66 530.958 792.659 530.96 792.659 530.964C792.659 530.97 792.658 530.981 792.657 530.995C792.655 531.023 792.653 531.066 792.649 531.124C792.641 531.239 792.63 531.411 792.613 531.638C792.581 532.092 792.529 532.763 792.456 533.626C792.31 535.351 792.076 537.842 791.724 540.891C791.02 546.992 789.847 555.312 787.972 564.2C786.096 573.097 783.528 582.512 780.049 590.823C776.556 599.168 772.222 606.21 766.918 610.561L769.455 613.654C775.495 608.699 780.142 600.96 783.739 592.367C787.35 583.74 789.981 574.06 791.886 565.026C793.793 555.982 794.984 547.534 795.698 541.349C796.055 538.256 796.293 535.724 796.442 533.963C796.517 533.083 796.569 532.395 796.603 531.925C796.62 531.69 796.632 531.51 796.64 531.388C796.644 531.326 796.647 531.28 796.649 531.248C796.65 531.232 796.651 531.22 796.652 531.211C796.652 531.207 796.652 531.204 796.652 531.201C796.652 531.2 796.652 531.199 796.652 531.198C796.652 531.198 796.652 531.197 794.656 531.076ZM766.918 610.561C745.016 628.527 710.404 628.458 685.409 610.484L683.074 613.731C709.355 632.63 745.982 632.908 769.455 613.654L766.918 610.561ZM685.409 610.484C679.366 606.138 674.236 599.085 669.945 590.753C665.668 582.446 662.305 573.026 659.721 564.121C657.14 555.223 655.35 546.889 654.207 540.777C653.635 537.722 653.225 535.226 652.959 533.497C652.826 532.633 652.728 531.96 652.665 531.506C652.633 531.278 652.609 531.105 652.594 530.99C652.586 530.933 652.58 530.89 652.577 530.862C652.575 530.848 652.573 530.837 652.573 530.831C652.572 530.827 652.572 530.825 652.572 530.823C652.572 530.823 652.572 530.822 652.571 530.822C652.571 530.822 652.571 530.822 650.588 531.076C648.604 531.33 648.604 531.331 648.604 531.331C648.604 531.332 648.604 531.333 648.604 531.334C648.605 531.337 648.605 531.34 648.606 531.344C648.607 531.353 648.608 531.365 648.611 531.381C648.615 531.413 648.621 531.46 648.629 531.522C648.646 531.645 648.67 531.826 648.703 532.061C648.77 532.533 648.869 533.223 649.006 534.106C649.278 535.872 649.694 538.411 650.275 541.512C651.435 547.713 653.252 556.179 655.879 565.235C658.504 574.283 661.952 583.968 666.389 592.584C670.812 601.174 676.298 608.858 683.074 613.731L685.409 610.484ZM650.588 529.076H640V533.076H650.588V529.076ZM629.412 533.076H640V529.076H629.412V533.076ZM596.926 613.731C603.702 608.858 609.188 601.174 613.611 592.584C618.048 583.968 621.496 574.283 624.121 565.235C626.748 556.179 628.565 547.713 629.725 541.512C630.306 538.411 630.722 535.872 630.994 534.106C631.131 533.223 631.23 532.533 631.297 532.061C631.33 531.826 631.354 531.645 631.371 531.522C631.379 531.46 631.385 531.413 631.389 531.381C631.392 531.365 631.393 531.353 631.394 531.344C631.395 531.34 631.395 531.337 631.396 531.334C631.396 531.333 631.396 531.332 631.396 531.331C631.396 531.331 631.396 531.33 629.412 531.076C627.429 530.822 627.429 530.822 627.429 530.822C627.428 530.822 627.428 530.823 627.428 530.823C627.428 530.825 627.428 530.827 627.427 530.831C627.427 530.837 627.425 530.848 627.423 530.862C627.42 530.89 627.414 530.933 627.406 530.99C627.391 531.105 627.367 531.278 627.335 531.506C627.272 531.96 627.174 532.633 627.041 533.497C626.775 535.226 626.365 537.722 625.793 540.777C624.65 546.889 622.86 555.223 620.279 564.121C617.695 573.026 614.332 582.446 610.055 590.753C605.764 599.085 600.634 606.138 594.591 610.484L596.926 613.731ZM510.545 613.654C534.018 632.908 570.645 632.63 596.926 613.731L594.591 610.484C569.596 628.458 534.984 628.527 513.082 610.561L510.545 613.654ZM485.344 531.076C483.348 531.197 483.348 531.198 483.348 531.198C483.348 531.199 483.348 531.2 483.348 531.201C483.348 531.204 483.348 531.207 483.348 531.211C483.349 531.22 483.35 531.232 483.351 531.248C483.353 531.28 483.356 531.326 483.36 531.388C483.368 531.51 483.38 531.69 483.397 531.925C483.431 532.395 483.483 533.083 483.558 533.963C483.707 535.724 483.945 538.256 484.302 541.349C485.016 547.534 486.207 555.982 488.114 565.026C490.019 574.06 492.65 583.74 496.261 592.367C499.858 600.96 504.505 608.699 510.545 613.654L513.082 610.561C507.778 606.21 503.444 599.168 499.951 590.823C496.472 582.512 493.904 573.097 492.028 564.2C490.153 555.312 488.98 546.992 488.276 540.891C487.924 537.842 487.69 535.351 487.544 533.626C487.471 532.763 487.419 532.092 487.387 531.638C487.37 531.411 487.359 531.239 487.351 531.124C487.347 531.066 487.345 531.023 487.343 530.995C487.342 530.981 487.341 530.97 487.341 530.964C487.341 530.96 487.34 530.958 487.34 530.957C487.34 530.956 487.34 530.955 487.34 530.955C487.34 530.955 487.34 530.955 485.344 531.076ZM473.088 527.04L484.432 532.856L486.256 529.296L474.912 523.481L473.088 527.04ZM472 506.65V525.26H476V506.65H472ZM502.997 520.29C503.794 518.742 505.764 516.367 508.979 513.642L506.392 510.591C503.014 513.454 500.588 516.231 499.441 518.458L502.997 520.29ZM501.525 526.059C502.102 522.826 502.682 520.901 502.997 520.29L499.441 518.458C498.817 519.669 498.159 522.149 497.587 525.356L501.525 526.059ZM500.175 537.913C500.46 533.237 500.969 529.172 501.525 526.059L497.587 525.356C497.002 528.634 496.476 532.853 496.182 537.67L500.175 537.913ZM502.51 570.301C499.935 558.972 499.603 547.28 500.175 537.913L496.182 537.67C495.594 547.295 495.927 559.386 498.61 571.188L502.51 570.301ZM518.049 600.239C509.871 592.435 505.088 581.644 502.51 570.301L498.61 571.188C501.29 582.981 506.344 594.599 515.288 603.133L518.049 600.239ZM554.722 612.46C537.848 613.004 526.164 607.982 518.049 600.239L515.288 603.133C524.27 611.704 537.038 617.033 554.851 616.458L554.722 612.46ZM554.739 612.459L554.734 612.459L554.839 616.458L554.844 616.458L554.739 612.459ZM590.537 599.087C582.066 606.822 570.517 612.097 554.745 612.459L554.837 616.458C571.539 616.074 584.024 610.451 593.234 602.041L590.537 599.087ZM608.06 570.157C604.597 580.918 599.054 591.311 590.537 599.087L593.234 602.041C602.418 593.655 608.265 582.577 611.868 571.382L608.06 570.157ZM613.062 539.588C612.863 548.404 611.522 559.401 608.06 570.157L611.868 571.382C615.472 560.184 616.855 548.792 617.061 539.678L613.062 539.588ZM612.635 528.414C612.974 531.358 613.161 535.183 613.062 539.588L617.061 539.678C617.163 535.119 616.972 531.109 616.609 527.957L612.635 528.414ZM612.044 524.762C612.261 525.715 612.466 526.941 612.635 528.414L616.609 527.957C616.428 526.382 616.202 525.005 615.944 523.873L612.044 524.762ZM611.491 522.997C611.608 523.216 611.817 523.766 612.044 524.762L615.944 523.873C615.692 522.767 615.388 521.801 615.015 521.106L611.491 522.997ZM561.049 496.549C592.438 497.654 607.406 515.385 611.491 522.997L615.015 521.106C610.37 512.449 594.224 493.714 561.19 492.552L561.049 496.549ZM521.469 505.434C531.683 500.167 545.335 495.996 561.049 496.549L561.19 492.552C544.685 491.971 530.357 496.35 519.636 501.879L521.469 505.434ZM508.979 513.642C512.143 510.96 516.363 508.067 521.469 505.434L519.636 501.879C514.276 504.643 509.801 507.702 506.392 510.591L508.979 513.642ZM561.225 491.552C544.522 490.965 530.025 495.396 519.178 500.99L521.011 504.545C531.351 499.213 545.173 494.99 561.085 495.55L561.225 491.552ZM615.896 520.633C611.112 511.715 594.671 492.729 561.225 491.552L561.085 495.55C592.885 496.669 608.147 514.651 612.372 522.524L615.896 520.633ZM616.919 523.65C616.66 522.516 616.333 521.447 615.896 520.633L612.372 522.524C612.553 522.862 612.786 523.516 613.019 524.54L616.919 523.65ZM617.603 527.843C617.419 526.242 617.187 524.828 616.919 523.65L613.019 524.54C613.247 525.538 613.456 526.801 613.629 528.3L617.603 527.843ZM618.06 539.7C618.164 535.103 617.971 531.046 617.603 527.843L613.629 528.3C613.974 531.296 614.162 535.167 614.061 539.61L618.06 539.7ZM612.82 571.688C616.459 560.379 617.853 548.888 618.06 539.7L614.061 539.61C613.861 548.501 612.509 559.596 609.012 570.463L612.82 571.688ZM593.909 602.779C603.259 594.242 609.182 582.992 612.82 571.688L609.012 570.463C605.514 581.333 599.895 591.897 591.212 599.825L593.909 602.779ZM554.863 617.458C571.795 617.068 584.513 611.358 593.909 602.779L591.212 599.825C582.556 607.729 570.773 613.091 554.771 613.459L554.863 617.458ZM514.598 603.857C523.796 612.634 536.834 618.039 554.881 617.457L554.752 613.459C537.644 614.011 525.69 608.912 517.359 600.963L514.598 603.857ZM497.635 571.409C500.341 583.316 505.463 595.14 514.598 603.857L517.359 600.963C508.989 592.976 504.139 581.978 501.535 570.523L497.635 571.409ZM495.184 537.609C494.592 547.299 494.925 559.49 497.635 571.409L501.535 570.523C498.933 559.075 498.6 547.284 499.177 537.852L495.184 537.609ZM496.603 525.18C496.01 528.5 495.48 532.757 495.184 537.609L499.177 537.852C499.464 533.141 499.978 529.038 500.541 525.883L496.603 525.18ZM498.552 518C497.851 519.36 497.174 521.979 496.603 525.18L500.541 525.883C501.116 522.657 501.715 520.593 502.108 519.832L498.552 518ZM505.746 509.828C502.326 512.726 499.787 515.603 498.552 518L502.108 519.832C502.993 518.114 505.076 515.639 508.332 512.88L505.746 509.828ZM519.178 500.99C513.754 503.787 509.215 506.887 505.746 509.828L508.332 512.88C511.558 510.146 515.841 507.211 521.011 504.545L519.178 500.99ZM780.559 518.458C779.412 516.231 776.986 513.454 773.608 510.591L771.021 513.642C774.236 516.367 776.206 518.742 777.003 520.29L780.559 518.458ZM782.413 525.356C781.841 522.149 781.183 519.669 780.559 518.458L777.003 520.29C777.318 520.901 777.898 522.826 778.475 526.059L782.413 525.356ZM783.818 537.669C783.524 532.853 782.998 528.634 782.413 525.356L778.475 526.059C779.031 529.172 779.54 533.237 779.825 537.913L783.818 537.669ZM781.39 571.188C784.073 559.386 784.406 547.295 783.818 537.67L779.825 537.913C780.397 547.28 780.065 558.972 777.49 570.301L781.39 571.188ZM764.712 603.133C773.656 594.599 778.71 582.981 781.39 571.188L777.49 570.301C774.912 581.644 770.129 592.435 761.951 600.239L764.712 603.133ZM725.149 616.458C742.962 617.033 755.73 611.704 764.712 603.133L761.951 600.239C753.836 607.982 742.152 613.004 725.278 612.46L725.149 616.458ZM725.156 616.458L725.161 616.458L725.266 612.459L725.261 612.459L725.156 616.458ZM686.766 602.041C695.976 610.451 708.461 616.074 725.163 616.458L725.255 612.459C709.483 612.097 697.934 606.822 689.463 599.087L686.766 602.041ZM668.132 571.382C671.735 582.577 677.582 593.655 686.766 602.041L689.463 599.087C680.946 591.311 675.403 580.918 671.94 570.157L668.132 571.382ZM662.939 539.678C663.145 548.792 664.528 560.184 668.132 571.382L671.94 570.157C668.478 559.401 667.137 548.404 666.938 539.588L662.939 539.678ZM663.391 527.957C663.028 531.109 662.837 535.119 662.939 539.678L666.938 539.588C666.839 535.183 667.026 531.358 667.365 528.414L663.391 527.957ZM664.056 523.873C663.798 525.005 663.572 526.382 663.391 527.957L667.365 528.414C667.534 526.941 667.739 525.715 667.956 524.762L664.056 523.873ZM664.985 521.106C664.612 521.801 664.308 522.767 664.056 523.873L667.956 524.762C668.183 523.766 668.392 523.216 668.509 522.997L664.985 521.106ZM718.81 492.552C685.776 493.714 669.63 512.449 664.985 521.106L668.509 522.997C672.594 515.385 687.562 497.654 718.951 496.549L718.81 492.552ZM760.364 501.879C749.643 496.35 735.315 491.971 718.81 492.552L718.951 496.549C734.665 495.996 748.317 500.167 758.531 505.434L760.364 501.879ZM773.608 510.591C770.199 507.702 765.724 504.643 760.364 501.879L758.531 505.434C763.637 508.067 767.857 510.96 771.021 513.642L773.608 510.591ZM718.915 495.55C734.827 494.99 748.649 499.213 758.989 504.545L760.822 500.99C749.975 495.396 735.478 490.965 718.775 491.552L718.915 495.55ZM667.628 522.524C671.853 514.651 687.115 496.669 718.915 495.55L718.775 491.552C685.329 492.729 668.888 511.715 664.104 520.633L667.628 522.524ZM666.981 524.54C667.214 523.516 667.447 522.862 667.628 522.524L664.104 520.633C663.667 521.447 663.34 522.516 663.081 523.65L666.981 524.54ZM666.371 528.3C666.544 526.801 666.753 525.538 666.981 524.54L663.081 523.65C662.813 524.828 662.581 526.242 662.397 527.843L666.371 528.3ZM665.939 539.61C665.838 535.167 666.026 531.296 666.371 528.3L662.397 527.843C662.029 531.046 661.836 535.103 661.94 539.7L665.939 539.61ZM670.988 570.463C667.491 559.596 666.139 548.501 665.939 539.61L661.94 539.7C662.147 548.888 663.541 560.379 667.18 571.688L670.988 570.463ZM688.788 599.825C680.105 591.897 674.486 581.333 670.988 570.463L667.18 571.688C670.818 582.992 676.741 594.242 686.091 602.779L688.788 599.825ZM725.229 613.459C709.227 613.091 697.444 607.729 688.788 599.825L686.091 602.779C695.487 611.358 708.205 617.068 725.137 617.458L725.229 613.459ZM762.641 600.963C754.31 608.912 742.356 614.011 725.248 613.459L725.119 617.457C743.166 618.039 756.204 612.634 765.402 603.857L762.641 600.963ZM778.465 570.523C775.861 581.978 771.011 592.976 762.641 600.963L765.402 603.857C774.537 595.14 779.659 583.316 782.365 571.409L778.465 570.523ZM780.823 537.852C781.4 547.284 781.067 559.075 778.465 570.523L782.365 571.409C785.075 559.49 785.408 547.299 784.816 537.609L780.823 537.852ZM779.459 525.883C780.022 529.038 780.536 533.141 780.823 537.852L784.816 537.609C784.52 532.757 783.99 528.5 783.397 525.18L779.459 525.883ZM777.892 519.832C778.285 520.593 778.884 522.657 779.459 525.883L783.397 525.18C782.826 521.979 782.149 519.36 781.448 518L777.892 519.832ZM771.668 512.88C774.924 515.639 777.007 518.114 777.892 519.832L781.448 518C780.213 515.603 777.674 512.726 774.254 509.828L771.668 512.88ZM758.989 504.545C764.159 507.211 768.442 510.146 771.668 512.88L774.254 509.828C770.785 506.887 766.246 503.787 760.822 500.99L758.989 504.545Z" fill="black"/></g></g></g>    </g><g id="notion-avatar-hair">      <g id="Hairstyle/ 34"><g id="Shape"><path fill-rule="evenodd" clip-rule="evenodd" d="M279.001 719L312.001 727L363.001 804L362.012 804.138C354.394 805.17 349.724 805.124 348.001 804C335.11 795.586 327.667 781.235 316.001 769C301.896 754.207 289.563 737.54 279.001 719ZM555.001 245C595.484 249.465 630.917 268.728 660.824 294.427L663.31 294.901C703.949 302.792 748.312 311.503 768.001 340C793.334 376.666 803.668 419.666 799.001 469C782.061 429.032 756.001 397 740.033 393.568C760.909 430.158 768.001 461.184 768.001 473C768.001 512 751.334 552.666 744.001 578C744.001 543.333 736.334 485.333 691.001 442C637.019 390.399 541.818 418 502.001 418C471.276 418 487.967 464.879 460.621 499.411C464.677 513 473.001 533 494.001 552C461.561 551.983 448.728 532.541 438.816 511.856L435.487 512.41C432.89 512.847 430.302 513.31 427.911 513.879C431.102 526.945 438.217 542.546 449.256 560.682C434.736 548.356 424.268 534.345 417.851 518.648C417.503 519.067 417.217 519.517 417.001 520C393.365 572.739 393.001 593 381.001 655H366.001L364.629 651.851C349.93 618.257 338.054 595.64 329.001 584L328.16 582.929C314.41 565.583 299.959 555.5 288.001 559L287.246 559.23L286.711 559.403C277.924 562.306 258.241 571.727 244.001 589C238.75 595.369 233.084 607.369 227.001 625L226.066 623.594L224.701 621.517C212.007 602.071 205.107 587.565 204.001 578C200.119 544.442 196.001 434 232.001 383C268.001 332 279.908 338.533 308.001 332C332.001 251.333 417.202 229.801 555.001 245Z" fill="black"/><path d="M279.001 719L280.414 713.169C278.088 712.605 275.648 713.478 274.208 715.391C272.768 717.303 272.602 719.889 273.787 721.97L279.001 719ZM312.001 727L317.003 723.687C316.167 722.425 314.885 721.525 313.414 721.169L312.001 727ZM363.001 804L363.829 809.942C365.87 809.658 367.623 808.346 368.47 806.467C369.318 804.588 369.141 802.405 368.003 800.687L363.001 804ZM362.012 804.138L362.818 810.083C362.826 810.082 362.833 810.081 362.84 810.08L362.012 804.138ZM348.001 804L351.28 798.975L348.001 804ZM316.001 769L311.658 773.14L316.001 769ZM555.001 245L554.343 250.964L555.001 245ZM660.824 294.427L656.914 298.977C657.709 299.661 658.669 300.124 659.699 300.32L660.824 294.427ZM663.31 294.901L664.453 289.011C664.447 289.01 664.441 289.009 664.435 289.008L663.31 294.901ZM768.001 340L763.064 343.41L768.001 340ZM799.001 469L793.477 471.341C794.549 473.871 797.202 475.349 799.917 474.929C802.632 474.51 804.715 472.3 804.974 469.565L799.001 469ZM740.033 393.568L741.294 387.702C738.98 387.205 736.59 388.114 735.192 390.024C733.794 391.933 733.649 394.486 734.821 396.542L740.033 393.568ZM744.001 578H738.001C738.001 580.988 740.2 583.521 743.158 583.94C746.117 584.36 748.933 582.539 749.764 579.668L744.001 578ZM691.001 442L686.855 446.337L691.001 442ZM460.621 499.411L455.918 495.686C454.702 497.22 454.312 499.251 454.872 501.127L460.621 499.411ZM494.001 552L493.998 558C496.48 558.001 498.706 556.474 499.599 554.158C500.492 551.842 499.867 549.216 498.026 547.551L494.001 552ZM438.816 511.856L444.227 509.263C443.073 506.854 440.465 505.499 437.83 505.937L438.816 511.856ZM435.487 512.41L434.501 506.492L434.491 506.493L435.487 512.41ZM427.911 513.879L426.521 508.042C424.967 508.412 423.625 509.386 422.792 510.749C421.959 512.112 421.703 513.751 422.082 515.302L427.911 513.879ZM449.256 560.682L445.373 565.256C447.617 567.162 450.913 567.157 453.152 565.245C455.391 563.333 455.912 560.078 454.381 557.563L449.256 560.682ZM417.851 518.648L423.405 516.377C422.607 514.427 420.845 513.038 418.763 512.718C416.68 512.397 414.582 513.193 413.235 514.814L417.851 518.648ZM417.001 520L411.526 517.546L417.001 520ZM381.001 655V661C383.875 661 386.345 658.962 386.892 656.14L381.001 655ZM366.001 655L360.5 657.397C361.454 659.585 363.614 661 366.001 661V655ZM364.629 651.851L370.129 649.455L370.126 649.446L364.629 651.851ZM329.001 584L333.737 580.316C333.731 580.309 333.726 580.302 333.72 580.295L329.001 584ZM328.16 582.929L332.879 579.223C332.873 579.216 332.868 579.209 332.862 579.202L328.16 582.929ZM288.001 559L286.316 553.241C286.294 553.248 286.273 553.254 286.251 553.26L288.001 559ZM287.246 559.23L285.497 553.49C285.465 553.5 285.432 553.51 285.4 553.521L287.246 559.23ZM286.711 559.403L284.865 553.694C284.853 553.698 284.841 553.702 284.829 553.706L286.711 559.403ZM244.001 589L239.371 585.183L244.001 589ZM227.001 625L222.004 628.322C223.268 630.222 225.499 631.241 227.762 630.951C230.026 630.662 231.929 629.113 232.673 626.957L227.001 625ZM226.066 623.594L221.053 626.89C221.058 626.899 221.064 626.908 221.07 626.916L226.066 623.594ZM224.701 621.517L219.676 624.796C219.68 624.802 219.683 624.807 219.687 624.813L224.701 621.517ZM204.001 578L209.961 577.31L204.001 578ZM308.001 332L309.36 337.844C311.46 337.355 313.137 335.778 313.752 333.711L308.001 332ZM277.587 724.831L310.587 732.831L313.414 721.169L280.414 713.169L277.587 724.831ZM306.999 730.313L357.999 807.313L368.003 800.687L317.003 723.687L306.999 730.313ZM362.173 798.057L361.185 798.195L362.84 810.08L363.829 809.942L362.173 798.057ZM361.206 798.192C357.526 798.691 354.776 798.897 352.855 798.878C351.895 798.869 351.278 798.803 350.926 798.739C350.508 798.662 350.77 798.642 351.28 798.975L344.721 809.024C346.094 809.92 347.585 810.327 348.765 810.543C350.012 810.771 351.361 810.864 352.737 810.877C355.486 810.904 358.88 810.617 362.818 810.083L361.206 798.192ZM351.28 798.975C345.669 795.313 341.073 790.248 336.229 784.187C331.547 778.33 326.417 771.23 320.343 764.859L311.658 773.14C317.251 779.006 321.676 785.199 326.855 791.679C331.871 797.956 337.442 804.273 344.721 809.024L351.28 798.975ZM320.343 764.859C306.59 750.435 294.545 734.165 284.214 716.03L273.787 721.97C284.58 740.916 297.202 757.979 311.658 773.14L320.343 764.859ZM554.343 250.964C593.293 255.26 627.633 273.817 656.914 298.977L664.735 289.876C634.201 263.638 597.675 243.67 555.659 239.036L554.343 250.964ZM659.699 300.32L662.185 300.795L664.435 289.008L661.949 288.533L659.699 300.32ZM662.166 300.791C682.581 304.755 703.359 308.827 721.474 315.367C739.612 321.914 754.253 330.658 763.064 343.41L772.937 336.589C762.059 320.845 744.675 310.984 725.549 304.08C706.401 297.167 684.677 292.938 664.453 289.011L662.166 300.791ZM763.064 343.41C787.504 378.784 797.577 420.339 793.028 468.435L804.974 469.565C809.758 418.994 799.164 374.549 772.937 336.589L763.064 343.41ZM804.525 466.658C795.865 446.224 784.849 427.751 773.858 413.86C768.364 406.917 762.794 401.013 757.432 396.564C752.172 392.2 746.662 388.856 741.294 387.702L738.772 399.435C741.387 399.996 745.123 401.944 749.77 405.799C754.315 409.571 759.312 414.816 764.447 421.306C774.713 434.28 785.198 451.807 793.477 471.341L804.525 466.658ZM734.821 396.542C755.396 432.603 762.001 462.589 762.001 473H774.001C774.001 459.78 766.422 427.714 745.244 390.595L734.821 396.542ZM762.001 473C762.001 491.707 757.995 511.019 752.972 529.011C750.466 537.988 747.728 546.565 745.138 554.537C742.566 562.455 740.106 569.878 738.237 576.331L749.764 579.668C751.563 573.455 753.936 566.294 756.551 558.244C759.149 550.247 761.953 541.47 764.53 532.238C769.674 513.814 774.001 493.293 774.001 473H762.001ZM750.001 578C750.001 542.675 742.223 482.662 695.147 437.663L686.855 446.337C730.445 488.004 738.001 543.992 738.001 578H750.001ZM695.147 437.663C666.431 410.214 627.142 404.194 591.113 404.65C573.018 404.879 555.434 406.75 540.048 408.533C524.45 410.341 511.51 412 502.001 412V424C512.401 424 526.292 422.208 541.43 420.454C556.779 418.674 573.835 416.87 591.265 416.649C626.286 416.205 661.589 422.185 686.855 446.337L695.147 437.663ZM502.001 412C497.387 412 493.279 412.884 489.706 414.784C486.116 416.693 483.424 419.437 481.377 422.612C477.47 428.667 475.667 436.747 474.152 444.622C470.968 461.163 468.483 479.818 455.918 495.686L465.325 503.136C480.105 484.471 482.947 462.421 485.935 446.89C487.506 438.728 489 432.93 491.46 429.117C492.596 427.357 493.855 426.169 495.34 425.379C496.842 424.58 498.933 424 502.001 424V412ZM454.872 501.127C459.137 515.415 467.926 536.5 489.975 556.449L498.026 547.551C478.075 529.5 470.218 510.585 466.371 497.695L454.872 501.127ZM494.004 546C479.135 545.992 469.248 541.59 461.914 535.166C454.373 528.559 449.115 519.463 444.227 509.263L433.405 514.449C438.43 524.935 444.544 535.902 454.007 544.192C463.678 552.664 476.427 557.991 493.998 558L494.004 546ZM437.83 505.937L434.501 506.492L436.473 518.329L439.802 517.774L437.83 505.937ZM434.491 506.493C431.879 506.933 429.122 507.423 426.521 508.042L429.301 519.716C431.483 519.196 433.901 518.762 436.483 518.327L434.491 506.493ZM422.082 515.302C425.479 529.209 432.934 545.407 444.13 563.802L454.381 557.563C443.5 539.686 436.725 524.681 433.74 512.455L422.082 515.302ZM453.139 556.108C439.261 544.327 429.414 531.079 423.405 516.377L412.297 520.918C419.121 537.611 430.211 552.385 445.373 565.256L453.139 556.108ZM413.235 514.814C412.565 515.621 411.981 516.531 411.526 517.546L422.476 522.454C422.466 522.477 422.457 522.492 422.453 522.498C422.449 522.505 422.452 522.499 422.466 522.482L413.235 514.814ZM411.526 517.546C387.534 571.08 387.043 592.207 375.11 653.86L386.892 656.14C398.959 593.792 399.197 574.397 422.476 522.454L411.526 517.546ZM381.001 649H366.001V661H381.001V649ZM371.501 652.603L370.129 649.455L359.128 654.248L360.5 657.397L371.501 652.603ZM370.126 649.446C355.436 615.872 343.303 592.616 333.737 580.316L324.265 587.683C332.805 598.664 344.424 620.642 359.132 654.256L370.126 649.446ZM333.72 580.295L332.879 579.223L323.441 586.634L324.282 587.705L333.72 580.295ZM332.862 579.202C325.755 570.236 318.21 562.806 310.58 558.054C302.978 553.319 294.567 550.827 286.316 553.241L289.686 564.758C293.393 563.674 298.187 564.473 304.237 568.24C310.26 571.992 316.815 578.275 323.458 586.656L332.862 579.202ZM286.251 553.26L285.497 553.49L288.996 564.969L289.75 564.739L286.251 553.26ZM285.4 553.521L284.865 553.694L288.558 565.112L289.093 564.939L285.4 553.521ZM284.829 553.706C275.318 556.848 254.535 566.79 239.371 585.183L248.63 592.816C261.947 576.664 280.531 567.764 288.594 565.1L284.829 553.706ZM239.371 585.183C233.375 592.457 227.425 605.373 221.329 623.043L232.673 626.957C238.742 609.365 244.126 598.28 248.63 592.816L239.371 585.183ZM231.997 621.678L231.063 620.272L221.07 626.916L222.004 628.322L231.997 621.678ZM231.08 620.298L229.714 618.221L219.687 624.813L221.053 626.89L231.08 620.298ZM229.725 618.237C223.467 608.649 218.72 600.405 215.424 593.476C212.094 586.476 210.405 581.146 209.961 577.31L198.041 578.689C198.703 584.419 201.017 591.124 204.587 598.63C208.191 606.206 213.241 614.938 219.676 624.796L229.725 618.237ZM209.961 577.31C208.06 560.877 206.075 525.266 209.027 487.508C212.001 449.473 219.904 410.542 236.903 386.46L227.099 379.54C208.098 406.458 200.06 448.247 197.063 486.573C194.045 525.175 196.06 561.565 198.041 578.689L209.961 577.31ZM236.903 386.46C254.756 361.167 266.036 351.054 275.674 346.179C280.473 343.751 285.118 342.494 290.49 341.441C295.621 340.435 302.274 339.492 309.36 337.844L306.642 326.156C299.681 327.775 294.31 328.464 288.183 329.665C282.296 330.818 276.447 332.34 270.258 335.471C257.919 341.712 245.245 353.832 227.099 379.54L236.903 386.46ZM313.752 333.711C325.12 295.501 350.791 271.289 390.69 258.254C430.99 245.087 485.718 243.395 554.343 250.964L555.659 239.036C486.484 231.406 429.712 232.881 386.963 246.847C343.812 260.945 314.882 287.832 302.25 330.289L313.752 333.711Z" fill="black"/></g></g>    </g><g id="notion-avatar-accessories">      <!--?xml version="1.0" encoding="UTF-8"?-->    <title>Accessories/ 0</title>    <g id="Accessories/-0" stroke="none" stroke-width="1" fill="none" fill-rule="evenodd"/>    </g><g id="notion-avatar-details">      <!--?xml version="1.0" encoding="UTF-8"?-->    <title>Details/ 0</title>    <g id="Details/-0" stroke="none" stroke-width="1" fill="none" fill-rule="evenodd"/>    </g><g id="notion-avatar-beard">      <g id="Beard/ 14"><g id="Group"><path id="Path" fill-rule="evenodd" clip-rule="evenodd" d="M369.784 644C394.451 743.333 418.189 800 441 814L442.908 815.167C473.534 833.823 478.186 832.826 506.716 816.95C511.244 824.656 517.339 832.429 525.238 840L526.909 841.597C553.91 867.317 566.658 875.363 588.156 877.871L600 850H628L641.871 877.739C671.383 873.576 679.896 859.137 697.53 835C703.248 827.173 707.743 818.58 710.871 809.933L715.567 810.369C730.175 811.765 740.28 813.107 743 814C756.082 818.293 723.784 869 707 887C690.216 905 660.216 925 615 925C569.784 925 482.098 914.714 411.784 857C364.909 818.524 347.575 747.524 359.784 644H369.784Z" fill="black" stroke="black" stroke-width="12" stroke-linecap="round" stroke-linejoin="round"/><path id="Path_2" fill-rule="evenodd" clip-rule="evenodd" d="M608.276 721.024C620.49 720.388 613.298 732.659 608.276 734.496C606.833 735.023 594.815 735.554 585.174 736.945C561.252 740.398 527.346 745.779 525.914 744.906C523.905 743.681 524.91 741.232 531.94 735.72C538.971 730.209 596.062 721.659 608.276 721.024Z" fill="black" stroke="black" stroke-width="12" stroke-linecap="round" stroke-linejoin="round"/><path id="Path_3" fill-rule="evenodd" clip-rule="evenodd" d="M643.724 721.024C631.51 720.388 638.702 732.659 643.724 734.496C645.167 735.023 657.185 735.554 666.826 736.945C690.748 740.398 724.654 745.779 726.086 744.906C728.095 743.681 727.09 741.232 720.06 735.72C713.029 730.209 655.938 721.659 643.724 721.024Z" fill="black" stroke="black" stroke-width="12" stroke-linecap="round" stroke-linejoin="round"/></g></g>    </g>      </g>      </svg>